<svg width="180" height="180" viewBox="0 0 180 180" fill="none" xmlns="http://www.w3.org/2000/svg">
<rect x="0" y="0" width="180" height="180" fill="white"/>
<mask id="mask0_23_55" style="mask-type:alpha" maskUnits="userSpaceOnUse" x="0" y="0" width="180" height="180">
<rect x="0" y="0" width="180" height="180" fill="white"/>
</mask>
<g mask="url(#mask0_23_55)">
<path d="M63.444 137.288C63.9844 134.895 64.8054 132.574 65.8898 130.372C67.7228 126.725 70.7918 124.211 74.3819 122.349C74.8218 122.121 75.5681 122.038 75.9687 122.257C78.8492 123.829 81.6825 125.515 84.652 127.233C82.9892 128.105 81.2792 128.846 79.7343 129.851C77.9426 130.978 76.2501 132.255 74.6752 133.669C71.8968 136.233 72.1142 143.651 75.4005 146.406C78.2495 148.794 81.4861 150.415 84.7332 152.062C89.8839 154.681 95.1499 157.061 100.24 159.779C107.677 163.749 112.388 169.866 113.999 178.24C114.132 178.809 114.215 179.388 114.245 179.971C101.762 179.971 76.914 180 76.914 180C76.914 180 75.6728 179.427 75.6754 178.185C75.6754 177.015 76.9978 176.564 76.9978 176.564L104.124 176.625C104.124 176.625 103.1 174.857 102.723 174.09C102.053 172.723 101.076 172.372 99.5203 172.406C99.5203 172.406 89.719 172.346 84.8327 172.346C83.2013 172.346 82.3895 171.77 82.4079 170.644C82.4262 169.518 83.1803 169.028 84.7646 169.028H96.1476L97.9623 168.999C97.9623 168.999 77.7991 159.017 73.7141 156.65C69.4982 154.21 66.0966 150.674 64.5176 145.869C64.0435 144.436 63.6844 142.968 63.444 141.478C63.2438 140.089 63.2438 138.678 63.444 137.288Z" fill="#C69B70"/>
<path d="M93.3379 112.529L97.5276 109.612C96.8127 109.552 96.4566 109.494 96.1005 109.494C92.5654 109.494 89.0303 109.494 85.4978 109.494C84.2278 109.494 83.4684 108.808 83.4684 107.832C83.4684 106.753 84.3325 106.219 85.4821 106.226C88.8417 106.253 92.1543 106.226 95.5558 106.164C97.6507 106.127 99.1459 106.776 100.728 107.798C103.152 109.369 105.606 110.888 108.272 112.571C106.562 113.985 104.891 115.41 103.16 116.761C102.969 116.867 102.756 116.928 102.537 116.941C102.319 116.953 102.1 116.916 101.898 116.832C99.0778 115.449 96.2916 114.019 93.3379 112.529Z" fill="#C69B70"/>
<path d="M91.5127 101.866C91.5127 101.866 82.1329 101.906 78.6109 101.885C77.3514 101.898 76.7596 101.306 76.7779 100.146C76.7962 99.2191 77.3016 98.4989 78.2129 98.4571L85.4559 98.3864C85.833 98.3864 86.2205 98.7372 86.5872 98.9546C87.941 99.7402 90.6381 101.361 90.6381 101.361L91.5127 101.866Z" fill="#C69B70"/>
<path d="M108.858 29.8212C109.055 26.5899 110.691 25.0632 113.857 25.5608C115.23 25.798 116.556 26.2533 117.785 26.9093C132.064 34.3592 142.4 45.5694 149.054 60.1654C149.899 62.022 150.313 64.1693 150.475 66.2196C150.714 69.2572 149.017 70.7367 145.974 70.5141C143.062 70.2994 140.533 68.9901 138.118 67.5132C130.38 62.7998 124.106 56.4732 118.573 49.3795C115.02 44.8284 111.872 40.0154 110 34.498C109.468 32.9845 108.874 31.1174 108.858 29.8212Z" fill="#C69B70"/>
<path d="M93.673 152.081L99.3606 148.938C99.3606 148.938 83.8323 148.925 83.3872 148.878C82.2271 148.878 81.7532 148.441 81.7637 147.307C81.7741 146.173 82.2219 145.736 83.4841 145.686C88.5467 145.686 93.6093 145.686 98.6719 145.686H101.029C103.909 145.686 105.098 144.495 105.258 141.263H77.0423C75.2591 141.263 74.8401 140.76 74.8689 139.585C74.8977 138.409 75.3455 137.945 77.0816 137.938H105.305C105.37 136.351 104.747 135.128 103.836 134.083C103.574 133.785 102.877 133.782 102.38 133.779C96.4016 133.761 83.4841 133.745 83.0022 133.675C82.0884 133.716 81.4835 132.934 81.5254 131.949C81.5673 130.964 82.1172 130.378 83.0625 130.344C83.4893 130.323 99.2087 130.304 99.2087 130.304C99.2087 130.304 84.322 122.656 79.6086 119.861C74.1095 116.604 68.9614 112.852 66.3925 107.007C63.2921 109.29 60.4562 112.019 57.0991 113.724C48.7668 117.953 37.7216 118.646 29.3866 111.424C25.9536 108.45 23.6257 104.75 22.6385 100.34C21.9393 97.1216 21.0228 90.0174 21.0228 89.656C20.8893 87.2443 20.9364 83.2195 21.0228 82.324C21.1092 81.4284 21.5465 76.5107 22.12 73.6617C26.9382 49.2093 39.9814 30.6854 63.1376 20.9102C89.0329 9.98278 113.221 14.3768 134.486 32.6938C147.82 44.1842 155.469 59.1625 157.742 76.5395C158.991 86.1 157.902 95.6814 154.155 104.776C151.74 110.636 147.331 114.444 141.698 117.005C134.031 120.495 126.288 119.943 118.5 117.429C110.906 114.975 104.383 110.503 97.7266 106.287C93.9349 103.885 90.1536 101.466 86.2833 99.1956C82.6461 97.0614 78.8989 95.1106 75.1988 93.0838C74.937 92.9398 74.6463 92.8455 74.3452 92.7172C72.6981 95.3017 72.9966 97.9701 73.7979 100.667C74.7327 103.81 76.5605 106.297 79.1215 108.379C83.395 111.851 88.2866 114.224 93.1074 116.758C97.4988 119.071 102.011 121.194 106.2 123.829C117.387 130.86 117.408 146.959 107.36 154.608C104.933 156.456 103.278 157.09 100.212 155.33L93.673 152.081ZM108.861 29.8212C109.227 31.3924 109.471 32.9845 109.984 34.4954C111.857 40.0128 115.004 44.8258 118.557 49.3769C124.091 56.4706 130.365 62.7945 138.103 67.5106C140.527 68.9875 143.057 70.2968 145.958 70.5115C149.001 70.7341 150.698 69.2546 150.46 66.217C150.297 64.1667 149.884 62.0273 149.038 60.1628C142.379 45.5694 132.048 34.3592 117.769 26.9067C116.54 26.2507 115.214 25.7954 113.841 25.5582C110.696 25.0632 109.055 26.5899 108.858 29.8212H108.861ZM51.1864 108.272C55.8789 108.099 59.9822 106.439 63.9808 104.446C64.2662 104.304 64.5307 103.624 64.4391 103.296C63.1298 98.6116 63.1952 94.0186 65.0937 89.4858C65.2115 89.2056 64.968 88.4908 64.714 88.3755C60.1917 86.3514 55.7113 84.1858 51.0711 82.4733C47.667 81.2163 44.0297 81.033 41.0472 83.6542C39.4472 85.063 37.9284 86.7494 36.9072 88.606C33.0736 95.5898 35.226 102.702 42.0684 106.266C44.962 107.774 48.1593 107.96 51.1864 108.272Z" fill="#472C1C"/>
<path d="M63.9677 179.971C64.7218 172.54 68.5869 166.878 74.1488 162.215C74.3129 162.094 74.5025 162.012 74.7032 161.976C74.9038 161.939 75.1101 161.949 75.3062 162.005C78.1159 163.291 80.8969 164.645 83.6857 165.985L84.3351 166.307C84.3351 166.307 74.442 173.585 73.1328 179.971H63.9677Z" fill="#472C1C"/>
</g>
</svg>
