<svg xmlns="http://www.w3.org/2000/svg" viewBox="0 0 688 688"><defs><style>.cls-1{fill:#c69b70;}.cls-2{fill:#472c1c;}</style></defs><g id="Layer_2_Image" data-name="Layer 2 Image"><path class="cls-1" d="M244,525a119.12,119.12,0,0,1,9.34-26.41c7-13.93,18.72-23.53,32.43-30.64,1.68-.87,4.53-1.19,6.06-.35,11,6,21.82,12.44,33.16,19-6.35,3.33-12.88,6.16-18.78,10a142.37,142.37,0,0,0-19.32,14.58c-10.61,9.79-9.78,38.12,2.77,48.64,10.88,9.12,23.24,15.31,35.64,21.6,19.67,10,39.78,19.09,59.22,29.47,28.4,15.16,46.39,38.52,52.54,70.5A37.08,37.08,0,0,1,438,688c-47.67,0-142.56.11-142.56.11s-4.74-2.19-4.73-6.93c0-4.47,5.05-6.19,5.05-6.19l103.59.23s-3.91-6.75-5.35-9.68c-2.56-5.22-6.29-6.56-12.23-6.43,0,0-37.43-.23-56.09-.23-6.23,0-9.33-2.2-9.26-6.5s2.95-6.17,9-6.17l43.47,0,6.93-.11s-77-38.12-92.6-47.16c-16.1-9.32-29.09-22.82-35.12-41.17A108.28,108.28,0,0,1,244,541,56.08,56.08,0,0,1,244,525Z"/><path class="cls-1" d="M358.16,430.45l16-11.14c-2.73-.23-4.09-.45-5.45-.45-13.5,0-27,0-40.49,0-4.85,0-7.75-2.62-7.75-6.35,0-4.12,3.3-6.16,7.69-6.13,12.83.1,25.48,0,38.47-.24,8-.14,13.71,2.34,19.75,6.24,9.26,6,18.63,11.8,28.81,18.23-6.53,5.4-12.91,10.84-19.52,16a5.56,5.56,0,0,1-4.82.27C380.08,441.6,369.44,436.14,358.16,430.45Z"/><path class="cls-1" d="M351.19,389.73s-35.82.15-49.27.07c-4.81.05-7.07-2.21-7-6.64.07-3.54,2-6.29,5.48-6.45l27.66-.27c1.44,0,2.92,1.34,4.32,2.17,5.17,3,15.47,9.19,15.47,9.19Z"/><path class="cls-1" d="M417.43,114.6c.75-12.34,7-18.17,19.09-16.27a49.89,49.89,0,0,1,15,5.15c54.53,28.45,94,71.26,119.41,127,3.23,7.09,4.81,15.29,5.43,23.12.91,11.6-5.57,17.25-17.19,16.4-11.12-.82-20.78-5.82-30-11.46-29.55-18-53.51-42.16-74.64-69.25-13.57-17.38-25.59-35.76-32.74-56.83C419.76,126.68,417.49,119.55,417.43,114.6Z"/></g><g id="Layer_1_Image" data-name="Layer 1 Image"><path class="cls-2" d="M359.44,581.49l21.72-12s-59.3-.05-61-.23c-4.43,0-6.24-1.67-6.2-6s1.75-6,6.57-6.19q29,0,58,0h9c11,0,15.54-4.55,16.15-16.89H295.93c-6.81,0-8.41-1.92-8.3-6.41s1.82-6.26,8.45-6.29H403.86c.25-6.06-2.13-10.73-5.61-14.72-1-1.14-3.66-1.15-5.56-1.16-22.83-.07-72.16-.13-74-.4-3.49.16-5.8-2.83-5.64-6.59s2.26-6,5.87-6.13c1.63-.08,61.66-.15,61.66-.15s-56.85-29.21-74.85-39.88c-21-12.44-40.66-26.77-50.47-49.09-11.84,8.72-22.67,19.14-35.49,25.65-31.82,16.15-74,18.8-105.83-8.78-13.11-11.36-22-25.49-25.77-42.33C85.5,371.61,82,344.48,82,343.1c-.51-9.21-.33-24.58,0-28s2-22.2,4.19-33.08c18.4-93.38,68.21-164.12,156.64-201.45,98.89-41.73,191.26-24.95,272.47,45,50.92,43.88,80.13,101.08,88.81,167.44,4.77,36.51.61,73.1-13.7,107.83-9.22,22.38-26.06,36.92-47.57,46.7-29.28,13.33-58.85,11.22-88.59,1.62-29-9.37-53.91-26.45-79.33-42.55-14.48-9.17-28.92-18.41-43.7-27.08-13.89-8.15-28.2-15.6-42.33-23.34-1-.55-2.11-.91-3.26-1.4-6.29,9.87-5.15,20.06-2.09,30.36,3.57,12,10.55,21.5,20.33,29.45,16.32,13.26,35,22.32,53.41,32,16.77,8.83,34,16.94,50,27,42.72,26.85,42.8,88.33,4.43,117.54-9.27,7.06-15.59,9.48-27.3,2.76Zm58-466.89c1.4,6,2.33,12.08,4.29,17.85,7.15,21.07,19.17,39.45,32.74,56.83,21.13,27.09,45.09,51.24,74.64,69.25,9.26,5.64,18.92,10.64,30,11.46,11.62.85,18.1-4.8,17.19-16.4-.62-7.83-2.2-16-5.43-23.12-25.43-55.73-64.88-98.54-119.41-127a49.89,49.89,0,0,0-15-5.15C424.45,96.43,418.18,102.26,417.43,114.6ZM197.19,414.19c17.92-.66,33.59-7,48.86-14.61,1.09-.54,2.1-3.14,1.75-4.39-5-17.89-4.75-35.43,2.5-52.74.45-1.07-.48-3.8-1.45-4.24-17.27-7.73-34.38-16-52.1-22.54-13-4.8-26.89-5.5-38.28,4.51-6.11,5.38-11.91,11.82-15.81,18.91-14.64,26.67-6.42,53.83,19.71,67.44C173.42,412.29,185.63,413,197.19,414.19Z"/><path class="cls-2" d="M246,688c2.88-28.38,17.64-50,38.88-67.81a5.1,5.1,0,0,1,4.42-.8c10.73,4.91,21.35,10.08,32,15.2l2.48,1.23S286,663.61,281,688Z"/></g></svg>