<svg id="Layer_1" data-name="Layer 1" xmlns="http://www.w3.org/2000/svg" xmlns:xlink="http://www.w3.org/1999/xlink" viewBox="0 0 115.948 33.343"><defs><style>.cls-1{fill:none;}.cls-2{clip-path:url(#clip-path);}.cls-3{fill:#fff4c7;}</style><clipPath id="clip-path"><rect class="cls-1" x="-0.026" width="115.974" height="33.343"/></clipPath></defs><title>Artboard 1</title><g class="cls-2"><path class="cls-3" d="M100.435,25.722V21.264h.806a3.114,3.114,0,0,1,1.122.178,1.946,1.946,0,0,1,.742.484,1.873,1.873,0,0,1,.411.727,3.125,3.125,0,0,1,.129.921,2,2,0,0,1-.613,1.671,2.782,2.782,0,0,1-1.742.477Zm3.78,4.4a3.57,3.57,0,0,0,.655.742,1.077,1.077,0,0,0,.687.29q.453,0,.987.028c.356.018.657.04.9.065a1.474,1.474,0,0,0,.033-.292c0-.129-.049-.2-.146-.226a4.526,4.526,0,0,1-.695-.242,1.709,1.709,0,0,1-.68-.583l-2.7-3.753a3.3,3.3,0,0,0,.93-.51,3.088,3.088,0,0,0,.647-.688,2.911,2.911,0,0,0,.372-.761,2.5,2.5,0,0,0,.122-.745,2.608,2.608,0,0,0-.89-2.08,3.932,3.932,0,0,0-2.637-.769H99.622q-.47,0-.987-.028t-1-.065a1.457,1.457,0,0,0-.032.259c0,.174.054.265.162.276a2.37,2.37,0,0,1,.913.235.516.516,0,0,1,.235.462v8.248a.484.484,0,0,1-.251.462,2.894,2.894,0,0,1-.865.235c-.118.021-.178.108-.178.259a1.427,1.427,0,0,0,.032.259c.324-.024.669-.046,1.036-.064s.691-.028.972-.028q.6,0,1.223.028c.415.018.768.04,1.059.064a1.4,1.4,0,0,0,.033-.275c0-.161-.065-.253-.195-.275a4.321,4.321,0,0,1-1.01-.21.48.48,0,0,1-.331-.485V26.392h1.195Zm-13.48-8.854a2.927,2.927,0,0,1,.816.1,1.542,1.542,0,0,1,.566.291,1.873,1.873,0,0,1,.413.493q.177.3.372.719a.269.269,0,0,0,.275.146.474.474,0,0,0,.291-.1,1.9,1.9,0,0,1-.243-.712q-.064-.42-.113-.792a4.886,4.886,0,0,0-.122-.64c-.048-.178-.142-.268-.282-.268q-.179,0-.712.047t-1.261.046H87.547q-.372,0-.842-.019T85.54,20.5a1.088,1.088,0,0,0-.024.122.91.91,0,0,0-.008.137c0,.163.053.255.161.276a3.979,3.979,0,0,1,.914.251.457.457,0,0,1,.234.446v8.248a.462.462,0,0,1-.267.454,3.739,3.739,0,0,1-.881.243c-.108.021-.161.108-.161.259a1.342,1.342,0,0,0,.032.259c.323-.024.663-.046,1.019-.064s.691-.028,1-.028h3.544q.21,0,.5.018c.194.013.386.022.574.028s.364.016.526.028.285.018.372.018c.107,0,.2-.092.266-.275a5.734,5.734,0,0,0,.2-.664q.1-.389.2-.818A3.906,3.906,0,0,1,94,28.7c-.054-.031-.11-.062-.17-.093a.374.374,0,0,0-.169-.046c-.13,0-.211.038-.243.112a7.1,7.1,0,0,1-.4.7,2.672,2.672,0,0,1-.477.552,2.092,2.092,0,0,1-.614.367,2.23,2.23,0,0,1-.817.136h-.889a6.454,6.454,0,0,1-1.44-.112q-.437-.113-.436-.452v-3.8h2.523a.473.473,0,0,1,.46.316,3.438,3.438,0,0,1,.218.768.274.274,0,0,0,.308.21,1.027,1.027,0,0,0,.242-.032c-.032-.334-.054-.634-.064-.9s-.017-.488-.017-.672q0-.342.025-.8t.056-.813c-.032-.01-.075-.02-.129-.031a.749.749,0,0,0-.129-.015.263.263,0,0,0-.292.21,3.438,3.438,0,0,1-.218.768.472.472,0,0,1-.46.315H88.342V21.264ZM77.326,28.8l-2.749-7.035a.679.679,0,0,1-.032-.21q0-.42.954-.518c.129-.022.194-.113.194-.275a1.447,1.447,0,0,0-.032-.259c-.334.025-.7.047-1.084.065s-.717.028-.986.028-.609-.009-.986-.028-.728-.04-1.051-.065a1.051,1.051,0,0,0-.033.259c0,.183.059.281.178.291a2.929,2.929,0,0,1,.809.195.659.659,0,0,1,.323.339l3.8,9.429c.075.183.172.275.291.275h.145l3.994-9.62a.84.84,0,0,1,.372-.437,1.967,1.967,0,0,1,.76-.162c.119-.021.178-.118.178-.291a.406.406,0,0,0-.008-.073.415.415,0,0,1-.008-.089.479.479,0,0,1-.016-.116c-.054.013-.229.031-.526.056s-.622.037-.978.037c-.172,0-.356,0-.55-.009s-.375-.016-.542-.028-.31-.025-.428-.037-.189-.019-.21-.019a.486.486,0,0,0-.016.116.591.591,0,0,0-.016.145c0,.173.064.264.193.275a2.476,2.476,0,0,1,.728.178.363.363,0,0,1,.226.34.952.952,0,0,1-.064.323ZM63.349,25.722V21.264h.806a3.11,3.11,0,0,1,1.122.178,1.939,1.939,0,0,1,.742.484,1.86,1.86,0,0,1,.411.727,3.125,3.125,0,0,1,.13.921,2,2,0,0,1-.614,1.671,2.78,2.78,0,0,1-1.742.477Zm3.781,4.4a3.567,3.567,0,0,0,.654.742,1.077,1.077,0,0,0,.687.29q.453,0,.987.028t.9.065a1.474,1.474,0,0,0,.033-.292c0-.129-.049-.2-.146-.226a4.564,4.564,0,0,1-.695-.242,1.707,1.707,0,0,1-.679-.583l-2.7-3.753a3.311,3.311,0,0,0,.93-.51,3.106,3.106,0,0,0,.646-.688,2.915,2.915,0,0,0,.373-.761,2.528,2.528,0,0,0,.121-.745,2.608,2.608,0,0,0-.89-2.08,3.931,3.931,0,0,0-2.636-.769H62.536q-.469,0-.987-.028t-1-.065a1.457,1.457,0,0,0-.032.259c0,.174.054.265.162.276a2.377,2.377,0,0,1,.914.235.517.517,0,0,1,.234.462v8.248a.484.484,0,0,1-.251.462,2.894,2.894,0,0,1-.865.235c-.118.021-.177.108-.177.259a1.342,1.342,0,0,0,.032.259c.323-.024.668-.046,1.035-.064s.691-.028.972-.028q.6,0,1.223.028c.415.018.769.04,1.059.064a1.4,1.4,0,0,0,.033-.275c0-.161-.065-.253-.194-.275a4.319,4.319,0,0,1-1.011-.21.48.48,0,0,1-.331-.485V26.392h1.195ZM53.649,21.264a2.935,2.935,0,0,1,.817.1,1.55,1.55,0,0,1,.566.291,1.889,1.889,0,0,1,.412.493,7.675,7.675,0,0,1,.372.719.269.269,0,0,0,.275.146.47.47,0,0,0,.291-.1,1.916,1.916,0,0,1-.243-.712q-.065-.42-.113-.792a4.9,4.9,0,0,0-.121-.64c-.049-.178-.143-.268-.283-.268q-.178,0-.712.047t-1.261.046H50.461q-.372,0-.842-.019T48.454,20.5a1.088,1.088,0,0,0-.024.122.91.91,0,0,0-.008.137q0,.245.162.276a3.982,3.982,0,0,1,.913.251.458.458,0,0,1,.235.446v8.248a.462.462,0,0,1-.267.454,3.754,3.754,0,0,1-.881.243c-.108.021-.162.108-.162.259a1.342,1.342,0,0,0,.032.259c.323-.024.663-.046,1.019-.064s.691-.028,1-.028h3.543q.21,0,.5.018c.195.013.386.022.575.028s.363.016.525.028.286.018.372.018c.107,0,.2-.092.267-.275a5.938,5.938,0,0,0,.2-.664c.064-.259.132-.532.2-.818a3.9,3.9,0,0,1,.251-.737c-.054-.031-.111-.062-.17-.093a.381.381,0,0,0-.17-.046c-.13,0-.21.038-.242.112a7.3,7.3,0,0,1-.405.7,2.672,2.672,0,0,1-.477.552,2.079,2.079,0,0,1-.614.367,2.23,2.23,0,0,1-.817.136h-.889a6.45,6.45,0,0,1-1.439-.112q-.437-.113-.437-.452v-3.8h2.523a.472.472,0,0,1,.46.316,3.435,3.435,0,0,1,.219.768.272.272,0,0,0,.307.21,1.027,1.027,0,0,0,.242-.032c-.032-.334-.053-.634-.064-.9s-.016-.488-.016-.672q0-.342.024-.8t.056-.813c-.032-.01-.075-.02-.129-.031a.749.749,0,0,0-.129-.015.262.262,0,0,0-.291.21,3.435,3.435,0,0,1-.219.768.471.471,0,0,1-.46.315H51.256V21.264Zm-9.723.83q-.057-.558-.09-1.044a9.949,9.949,0,0,0-1.568-.493,6.957,6.957,0,0,0-1.455-.148,3.589,3.589,0,0,0-1.31.227,3,3,0,0,0-.993.614,2.626,2.626,0,0,0-.628.914,2.909,2.909,0,0,0-.218,1.124,2.867,2.867,0,0,0,.219,1.172,2.579,2.579,0,0,0,.622.866,4.2,4.2,0,0,0,.971.655,12.922,12.922,0,0,0,1.262.541,5.444,5.444,0,0,1,1.642.874,1.642,1.642,0,0,1,.574,1.326,1.855,1.855,0,0,1-.129.695,1.716,1.716,0,0,1-.388.583,1.791,1.791,0,0,1-.646.4,2.577,2.577,0,0,1-.906.146A2.646,2.646,0,0,1,39.1,30a3.9,3.9,0,0,1-1.043-1.714A.739.739,0,0,0,37.871,28a.452.452,0,0,0-.3-.089.683.683,0,0,0-.275.049q.129.63.225,1.261t.142,1.309a5.172,5.172,0,0,0,1.381.547,7.346,7.346,0,0,0,1.818.209,4.88,4.88,0,0,0,1.631-.242,2.949,2.949,0,0,0,1.107-.67,2.644,2.644,0,0,0,.63-1,3.713,3.713,0,0,0,.2-1.236,2.543,2.543,0,0,0-.736-1.849,6.591,6.591,0,0,0-2.287-1.364,8.375,8.375,0,0,1-1.883-.985,1.5,1.5,0,0,1-.638-1.244,1.362,1.362,0,0,1,.153-.645,1.533,1.533,0,0,1,.412-.493,1.856,1.856,0,0,1,.607-.307,2.528,2.528,0,0,1,.736-.1,2.658,2.658,0,0,1,1.584.421,3.3,3.3,0,0,1,1,1.342.545.545,0,0,0,.145.178.476.476,0,0,0,.307.08,1.319,1.319,0,0,0,.243-.032q-.1-.484-.153-1.043m-13.3,3.351a2.8,2.8,0,0,0,.792-.372,2.849,2.849,0,0,0,.607-.55,2.613,2.613,0,0,0,.4-.663,1.9,1.9,0,0,0,.146-.727,2.551,2.551,0,0,0-.186-.963,2.161,2.161,0,0,0-.59-.816,2.869,2.869,0,0,0-1.042-.558,5.142,5.142,0,0,0-1.543-.2H27.221q-.389,0-.946-.028c-.372-.018-.719-.04-1.043-.065a.427.427,0,0,0-.016.116.41.41,0,0,0-.016.129c0,.183.059.286.178.307.215.043.393.084.533.121a1.557,1.557,0,0,1,.34.129.464.464,0,0,1,.186.178.566.566,0,0,1,.057.266v8.22a.451.451,0,0,1-.243.444,3.988,3.988,0,0,1-.873.25c-.119.022-.178.108-.178.259V31a.174.174,0,0,0,.016.081.309.309,0,0,0,.016.115l.728-.046c.2-.01.423-.021.655-.03s.438-.016.622-.016H29.79a5.29,5.29,0,0,0,1.535-.21,3.586,3.586,0,0,0,1.188-.6,2.621,2.621,0,0,0,.759-.954,2.961,2.961,0,0,0,.267-1.278,2.188,2.188,0,0,0-.259-1.091,2.387,2.387,0,0,0-.679-.768,3.332,3.332,0,0,0-.938-.477,5.513,5.513,0,0,0-1.035-.235Zm-2.61.508h.854a3.574,3.574,0,0,1,2.183.6,2.057,2.057,0,0,1,.8,1.757,2.441,2.441,0,0,1-.194,1.04,1.593,1.593,0,0,1-.547.653,2.259,2.259,0,0,1-.854.338,5.828,5.828,0,0,1-1.112.1,3.021,3.021,0,0,1-.371-.024,1.534,1.534,0,0,1-.362-.088.791.791,0,0,1-.282-.178.393.393,0,0,1-.113-.29Zm0-.67V21.264h.243a3.411,3.411,0,0,1,2.045.476,1.724,1.724,0,0,1,.623,1.461,1.91,1.91,0,0,1-.623,1.582,3.291,3.291,0,0,1-2.045.5ZM12.659,31.749a4.821,4.821,0,0,1-1.626-1.561,7.71,7.71,0,0,1-1-2.369,12.088,12.088,0,0,1-.345-2.962,5.777,5.777,0,0,1,.366-2.132,4.713,4.713,0,0,1,.98-1.561,4.183,4.183,0,0,1,1.422-.969,4.369,4.369,0,0,1,1.69-.334,4.715,4.715,0,0,1,2.337.56,4.8,4.8,0,0,1,1.658,1.54,7.124,7.124,0,0,1,.98,2.3,12.14,12.14,0,0,1,.323,2.875,6.173,6.173,0,0,1-.334,2.068,4.967,4.967,0,0,1-.937,1.637,4.274,4.274,0,0,1-1.443,1.076,4.646,4.646,0,0,1-4.07-.172M7.975,29.057A6.729,6.729,0,0,0,9.4,31.351a6.231,6.231,0,0,0,2.186,1.475,7.373,7.373,0,0,0,2.8.517,8.024,8.024,0,0,0,2.832-.5,6.537,6.537,0,0,0,3.844-3.715,7.873,7.873,0,0,0,.56-3.047,8.425,8.425,0,0,0-.452-2.757,6.38,6.38,0,0,0-3.683-3.908,8.347,8.347,0,0,0-3.273-.593,5.963,5.963,0,0,0-2.585.582,7.051,7.051,0,0,0-2.153,1.572,7.5,7.5,0,0,0-1.465,2.3,7.31,7.31,0,0,0-.538,2.8,8.315,8.315,0,0,0,.506,2.972"/><path class="cls-3" d="M109.553,11.372,106.1,3.312a1.4,1.4,0,0,0-.073-.129.242.242,0,0,0-.137-.1,1.614,1.614,0,0,0-.258-.056,3.253,3.253,0,0,0-.452-.024q-.146,0-.387-.009l-.509-.019c-.177-.006-.355-.015-.533-.028s-.337-.025-.477-.037a1.447,1.447,0,0,0-.032.259c0,.174.054.265.162.276a2.48,2.48,0,0,1,.767.219.412.412,0,0,1,.2.381c0,.01-.008.208-.024.591s-.038.87-.065,1.458-.056,1.229-.089,1.921-.062,1.345-.088,1.96-.051,1.149-.073,1.6-.032.721-.032.818a.575.575,0,0,1-.3.462,2.231,2.231,0,0,1-.7.235c-.108.021-.162.108-.162.259a1.351,1.351,0,0,0,.032.259c.258-.024.533-.046.825-.064s.523-.028.7-.028q.324,0,.745.028c.28.018.566.04.857.064a1.436,1.436,0,0,0,.032-.259c0-.162-.054-.249-.161-.259q-1.1-.195-1.1-.7c0-.021.008-.216.024-.583s.037-.821.064-1.362.056-1.129.088-1.767.061-1.243.088-1.815.048-1.068.063-1.484.03-.678.041-.786l3.954,9.106h.145a.184.184,0,0,0,.153-.07,1.026,1.026,0,0,0,.122-.208l3.535-8.569c0,.086.01.328.033.722s.046.866.074,1.412.055,1.129.082,1.746.055,1.19.083,1.72.049.98.066,1.347.024.569.024.6a.462.462,0,0,1-.234.439,3.514,3.514,0,0,1-.881.259c-.108,0-.162.085-.162.254a1.372,1.372,0,0,0,.032.254c.129-.012.28-.025.453-.037s.347-.022.525-.027l.508-.019c.16-.006.293-.009.4-.009q.385,0,.846.028c.307.018.649.04,1.027.064a1.372,1.372,0,0,0,.032-.254.346.346,0,0,0-.04-.167.175.175,0,0,0-.122-.087,2.007,2.007,0,0,1-.792-.243.575.575,0,0,1-.21-.455q-.1-2.383-.17-3.99t-.121-2.571q-.049-.964-.073-1.379c-.016-.275-.024-.419-.024-.43a.428.428,0,0,1,.194-.365,1.983,1.983,0,0,1,.776-.219c.107-.01.162-.1.162-.275a1.375,1.375,0,0,0-.033-.26c-.14.012-.294.025-.46.037s-.332.022-.493.028-.313.012-.453.019-.253.009-.339.009a3.263,3.263,0,0,0-.452.024,1.639,1.639,0,0,0-.258.056.242.242,0,0,0-.137.1c-.027.043-.051.086-.073.129ZM92.018,12.5a3.6,3.6,0,0,1-1.22-1.168,5.778,5.778,0,0,1-.752-1.771,9.044,9.044,0,0,1-.258-2.215,4.31,4.31,0,0,1,.274-1.595A3.539,3.539,0,0,1,90.8,4.581a3.125,3.125,0,0,1,1.067-.725,3.308,3.308,0,0,1,1.269-.25,3.544,3.544,0,0,1,1.753.419,3.59,3.59,0,0,1,1.245,1.152A5.316,5.316,0,0,1,96.868,6.9a9.016,9.016,0,0,1,.242,2.15,4.608,4.608,0,0,1-.25,1.546,3.685,3.685,0,0,1-.7,1.224,3.2,3.2,0,0,1-1.083.8,3.505,3.505,0,0,1-3.056-.128m-3.513-2.009a5.037,5.037,0,0,0,1.067,1.72,4.689,4.689,0,0,0,1.641,1.1,5.545,5.545,0,0,0,2.1.388,6.043,6.043,0,0,0,2.127-.371,5.034,5.034,0,0,0,1.731-1.074,4.974,4.974,0,0,0,1.156-1.711,5.9,5.9,0,0,0,.42-2.284,6.31,6.31,0,0,0-.339-2.067,4.783,4.783,0,0,0-2.766-2.929,6.282,6.282,0,0,0-2.458-.444,4.477,4.477,0,0,0-1.941.436,5.276,5.276,0,0,0-1.617,1.178,5.615,5.615,0,0,0-1.1,1.727,5.464,5.464,0,0,0-.4,2.1,6.213,6.213,0,0,0,.38,2.227M77.251,12.5a3.6,3.6,0,0,1-1.22-1.168,5.753,5.753,0,0,1-.752-1.771,8.995,8.995,0,0,1-.259-2.215A4.31,4.31,0,0,1,75.3,5.748a3.507,3.507,0,0,1,.736-1.167A3.116,3.116,0,0,1,77.1,3.856a3.3,3.3,0,0,1,1.269-.25,3.546,3.546,0,0,1,1.753.419,3.59,3.59,0,0,1,1.245,1.152A5.315,5.315,0,0,1,82.1,6.9a9.015,9.015,0,0,1,.243,2.15,4.608,4.608,0,0,1-.251,1.546,3.685,3.685,0,0,1-.7,1.224,3.194,3.194,0,0,1-1.083.8,3.5,3.5,0,0,1-3.055-.128m-3.514-2.009a5.039,5.039,0,0,0,1.068,1.72,4.68,4.68,0,0,0,1.641,1.1,5.545,5.545,0,0,0,2.1.388,6.038,6.038,0,0,0,2.126-.371,4.91,4.91,0,0,0,2.888-2.785,5.9,5.9,0,0,0,.42-2.284,6.284,6.284,0,0,0-.34-2.067,4.785,4.785,0,0,0-2.765-2.929,6.287,6.287,0,0,0-2.459-.444,4.476,4.476,0,0,0-1.94.436,5.292,5.292,0,0,0-1.618,1.178,5.633,5.633,0,0,0-1.1,1.727,5.483,5.483,0,0,0-.4,2.1,6.235,6.235,0,0,0,.38,2.227m-10.2-2.354V3.675h.807a3.127,3.127,0,0,1,1.121.178,1.933,1.933,0,0,1,.742.485,1.855,1.855,0,0,1,.412.727,3.123,3.123,0,0,1,.129.92,2,2,0,0,1-.613,1.672,2.785,2.785,0,0,1-1.743.477Zm3.781,4.4a3.6,3.6,0,0,0,.655.742,1.081,1.081,0,0,0,.687.29q.453,0,.986.028c.356.018.658.04.906.064a1.451,1.451,0,0,0,.032-.291c0-.129-.048-.2-.145-.226a4.477,4.477,0,0,1-.7-.243,1.71,1.71,0,0,1-.679-.582l-2.7-3.754a3.248,3.248,0,0,0,.93-.51,3.086,3.086,0,0,0,.647-.687,2.942,2.942,0,0,0,.372-.761,2.5,2.5,0,0,0,.121-.745,2.607,2.607,0,0,0-.889-2.08A3.935,3.935,0,0,0,64.9,3.006H62.72c-.313,0-.641-.009-.986-.028s-.68-.04-1-.065a1.36,1.36,0,0,0-.032.259c0,.174.054.265.162.276a2.376,2.376,0,0,1,.913.235.518.518,0,0,1,.235.462v8.248a.485.485,0,0,1-.251.462,2.9,2.9,0,0,1-.865.235c-.119.021-.178.108-.178.259a1.436,1.436,0,0,0,.032.259c.324-.024.669-.046,1.036-.064s.691-.028.972-.028q.6,0,1.223.028c.415.018.768.04,1.059.064a1.391,1.391,0,0,0,.032-.275c0-.161-.065-.253-.194-.275a4.415,4.415,0,0,1-1.01-.21.48.48,0,0,1-.332-.485V8.8h1.2Zm-12-8.369a.539.539,0,0,1,.2-.47,2.175,2.175,0,0,1,.833-.243c.108-.022.162-.108.162-.259a1.489,1.489,0,0,0-.032-.276c-.335.025-.666.046-.994.065s-.641.028-.941.028-.614-.009-.974-.028-.675-.04-.945-.065a1.489,1.489,0,0,0-.032.276c0,.162.059.248.178.259a1.778,1.778,0,0,1,.825.267.564.564,0,0,1,.194.445V7.787H48.706V4.16a.537.537,0,0,1,.2-.469,2.151,2.151,0,0,1,.833-.243c.107-.022.161-.108.161-.259a1.489,1.489,0,0,0-.032-.276c-.324.025-.653.046-.987.065s-.653.028-.956.028-.616-.009-.972-.028-.669-.04-.938-.065a1.418,1.418,0,0,0-.033.276c0,.162.054.248.162.259.216.043.391.084.526.121a1.036,1.036,0,0,1,.315.138.413.413,0,0,1,.154.186.761.761,0,0,1,.04.268v8.232a.481.481,0,0,1-.226.454,3.023,3.023,0,0,1-.841.243c-.108.021-.162.1-.162.227a1.544,1.544,0,0,0,.032.291c.335-.024.669-.046,1-.064s.654-.028.957-.028.621.009.987.028.691.04.971.064a1.474,1.474,0,0,0,.033-.292.2.2,0,0,0-.178-.228,3.231,3.231,0,0,1-.841-.251.474.474,0,0,1-.21-.448V8.457h5.082v3.932a.482.482,0,0,1-.227.456,2.96,2.96,0,0,1-.824.243.2.2,0,0,0-.162.228,1.474,1.474,0,0,0,.033.292c.323-.024.654-.046.992-.064s.658-.028.958-.028.616.009.982.028.683.04.953.064a1.544,1.544,0,0,0,.032-.291c0-.13-.054-.206-.162-.227a3.286,3.286,0,0,1-.841-.251.471.471,0,0,1-.21-.446Zm-14.191.345c-.038-.372-.067-.72-.089-1.045a9.912,9.912,0,0,0-1.569-.492,6.943,6.943,0,0,0-1.455-.148,3.6,3.6,0,0,0-1.309.226,3,3,0,0,0-.993.615,2.62,2.62,0,0,0-.629.914A2.908,2.908,0,0,0,34.86,5.7a2.871,2.871,0,0,0,.218,1.172,2.592,2.592,0,0,0,.623.866,4.179,4.179,0,0,0,.97.654,12.6,12.6,0,0,0,1.263.542,5.434,5.434,0,0,1,1.642.874,1.645,1.645,0,0,1,.574,1.326,1.875,1.875,0,0,1-.129.695,1.732,1.732,0,0,1-.388.582,1.784,1.784,0,0,1-.647.4,2.572,2.572,0,0,1-.9.145,2.65,2.65,0,0,1-1.786-.549A3.907,3.907,0,0,1,35.252,10.7a.728.728,0,0,0-.186-.283.449.449,0,0,0-.3-.089.7.7,0,0,0-.275.048q.129.631.225,1.261t.142,1.31a5.24,5.24,0,0,0,1.381.547,7.338,7.338,0,0,0,1.817.209,4.89,4.89,0,0,0,1.632-.242,2.937,2.937,0,0,0,1.106-.67,2.648,2.648,0,0,0,.63-1,3.682,3.682,0,0,0,.2-1.235A2.542,2.542,0,0,0,40.893,8.7a6.61,6.61,0,0,0-2.287-1.364,8.353,8.353,0,0,1-1.883-.985,1.5,1.5,0,0,1-.639-1.244,1.355,1.355,0,0,1,.154-.646,1.5,1.5,0,0,1,.412-.492,1.822,1.822,0,0,1,.606-.307,2.533,2.533,0,0,1,.736-.1,2.659,2.659,0,0,1,1.585.42,3.3,3.3,0,0,1,1,1.342.539.539,0,0,0,.146.178.474.474,0,0,0,.307.081,1.3,1.3,0,0,0,.242-.032q-.1-.484-.153-1.043M29.427,4.142a.53.53,0,0,1,.235-.477,2.026,2.026,0,0,1,.833-.218.194.194,0,0,0,.129-.1.358.358,0,0,0,.048-.17,1.351,1.351,0,0,0-.032-.259c-.259.025-.52.046-.784.065s-.527.028-.789.028c-.218,0-.476-.009-.772-.028s-.6-.04-.915-.065a1.437,1.437,0,0,0-.032.259c0,.172.059.264.178.274a2.46,2.46,0,0,1,.873.227.5.5,0,0,1,.243.468v5.09a6.364,6.364,0,0,1-.178,1.608,2.294,2.294,0,0,1-1.62,1.713,5.116,5.116,0,0,1-1.538.2,2.662,2.662,0,0,1-2.275-.9,4.24,4.24,0,0,1-.672-2.577V4.141a.5.5,0,0,1,.266-.468,2.713,2.713,0,0,1,.882-.227c.107-.01.162-.1.162-.274a1.366,1.366,0,0,0-.033-.259c-.323.025-.674.046-1.051.065s-.708.028-.989.028q-.469,0-.98-.028c-.34-.019-.671-.04-.995-.065a1.437,1.437,0,0,0-.032.259c0,.172.054.264.162.275a2.313,2.313,0,0,1,.857.226.516.516,0,0,1,.226.469v5.5a7.255,7.255,0,0,0,.154,1.5,2.987,2.987,0,0,0,.616,1.3,3.218,3.218,0,0,0,1.322.914,6.117,6.117,0,0,0,2.253.348,5.9,5.9,0,0,0,2.027-.3,3.079,3.079,0,0,0,2.01-2.15,6.184,6.184,0,0,0,.211-1.674ZM8.558,10.792,4.142.5Q4.1.413,4.049.33A.315.315,0,0,0,3.874.206a2.049,2.049,0,0,0-.33-.072A4.09,4.09,0,0,0,2.966.1c-.124,0-.289,0-.495-.011L1.82.072Q1.481.062,1.14.042C.913.028.709.014.531,0A1.72,1.72,0,0,0,.49.33C.49.55.558.667.7.681a3.178,3.178,0,0,1,.98.278.525.525,0,0,1,.258.485q0,.021-.031.753T1.82,4.054Q1.769,5.179,1.707,6.5T1.594,9q-.052,1.176-.093,2.032c-.028.571-.042.919-.042,1.042a.731.731,0,0,1-.381.589,2.883,2.883,0,0,1-.9.3c-.138.027-.206.137-.206.33a1.729,1.729,0,0,0,.041.33q.495-.042,1.052-.072c.372-.021.667-.031.888-.031q.413,0,.949.031T4,13.619a1.814,1.814,0,0,0,.041-.33q0-.309-.207-.33-1.4-.248-1.4-.888c0-.027.011-.275.031-.742s.048-1.046.083-1.734.072-1.437.113-2.249.079-1.582.114-2.311.062-1.359.082-1.888.038-.864.052-1l5.056,11.6a.522.522,0,0,0,.185.021.234.234,0,0,0,.2-.093,1.394,1.394,0,0,0,.155-.279L13.015,2.476q0,.165.042.918t.092,1.8q.052,1.042.1,2.219t.1,2.187q.051,1.011.082,1.713t.031.763a.586.586,0,0,1-.3.558,4.456,4.456,0,0,1-1.125.33c-.137,0-.206.11-.206.33a1.814,1.814,0,0,0,.041.33q.247-.021.578-.041t.671-.031l.65-.021c.206-.007.378-.01.516-.01q.495,0,1.083.031t1.31.072a1.744,1.744,0,0,0,.042-.33.444.444,0,0,0-.052-.217.218.218,0,0,0-.155-.113,2.556,2.556,0,0,1-1.011-.31.724.724,0,0,1-.268-.578Q15.12,9.038,15.027,7t-.155-3.271Q14.811,2.5,14.78,1.97c-.021-.351-.031-.533-.031-.547A.543.543,0,0,1,15,.959a2.508,2.508,0,0,1,.991-.278c.137-.014.206-.131.206-.351A1.8,1.8,0,0,0,16.152,0l-.588.041c-.214.014-.423.024-.63.031l-.577.02C14.178.1,14.033.1,13.923.1a4.09,4.09,0,0,0-.578.031,2.049,2.049,0,0,0-.33.072A.315.315,0,0,0,12.84.33,1.717,1.717,0,0,0,12.747.5Z"/></g></svg>